<?xml version="1.0" standalone="no"?><!DOCTYPE svg PUBLIC "-//W3C//DTD SVG 1.1//EN" "http://www.w3.org/Graphics/SVG/1.1/DTD/svg11.dtd"><svg t="1588296760383" class="icon" viewBox="0 0 1024 1024" version="1.1" xmlns="http://www.w3.org/2000/svg" p-id="3440" xmlns:xlink="http://www.w3.org/1999/xlink" width="128" height="128"><defs><style type="text/css"></style></defs><path d="M516.4384171045926 128.07693562311113c-219.70163757511108 0-397.23831569066664 177.53667690192594-397.23831569066664 397.23831569066664v332.8812694945185c0 24.411293468444445 19.97287636385185 44.384169832296294 44.384169832296294 44.38416861866666h93.20675555555555c24.411293468444445 0 44.384169832296294-19.97287636385185 44.38416861866666-44.38416861866666v-219.70163878874072c0-24.411293468444445-19.97287636385185-44.384169832296294-44.38416861866666-44.38416861866666h-93.20675555555555v-68.7954620871111c0-195.2903453202963 157.5638005380741-352.8541458583704 352.8541458583704-352.854147072s352.8541458583704 157.5638005380741 352.8541458583704 352.854147072v68.7954620871111h-57.69941993244444c-13.315251313777777 0-22.19208430933333 8.876834209185184-22.19208430933333 22.19208430933333s8.876834209185184 22.19208430933333 22.19208430933333 22.19208430933333l57.69941993244444-2.2192079454814815v221.92084673422224l-95.42596350103702 2.2192079454814815v-197.50955326577775c0-13.315251313777777-8.876834209185184-22.19208430933333-22.19208552296296-22.19208430933333s-22.19208430933333 8.876834209185184-22.19208430933333 22.19208430933333v197.50955326577775c0 24.411293468444445 19.97287636385185 42.164960673185185 42.164960673185185 42.164960673185185H867.0733550174814c24.411293468444445 0 42.164960673185185-19.97287636385185 42.164960673185185-42.164960673185185V523.0960421546667c4.438417104592592-217.48242962962962-175.31746895644446-395.0191065315555-392.7998985860741-395.0191065315555z m-352.8541458583704 510.41794639644445h93.20675555555555v219.70163878874072h-93.20675555555555v-219.70163878874072z" fill="#ffffff" p-id="3441"></path></svg>